# xmcd
#
# Track frame offsets:
#	150
#	16283
#	29200
#	44320
#	58010
#	73021
#	88837
#	114262
#	133629
#	156932
#	173241
#	190861
#	207429
#	230222
#
# Disc length: 3463 seconds
#
# Revision: 1
# Processed by: cddbd v1.4PL0 Copyright (c) Steve Scherf et al.
# Submitted via: CDmax 1.9
#
DISCID=cc0d850e
DTITLE=Dolly Parton - Halos and Horns
DYEAR=2002
DGENRE=Country
TTITLE0=Halos and Horns
TTITLE1=Sugar Hill
TTITLE2=Not For Me
TTITLE3=Hello GOD
TTITLE4=If
TTITLE5=Shattered Image
TTITLE6=These Old Bones
TTITLE7=What A Heartache
TTITLE8=I'm Gone
TTITLE9=Raven Dove
TTITLE10=Dagger Through The Heart
TTITLE11=If Only
TTITLE12=John Daniel
TTITLE13=Stairway To Heaven
EXTD=
EXTT0=
EXTT1=
EXTT2=
EXTT3=
EXTT4=
EXTT5=
EXTT6=
EXTT7=
EXTT8=
EXTT9=
EXTT10=
EXTT11=
EXTT12=
EXTT13=
PLAYORDER=
